<svg width="1600" height="1100" viewBox="0 0 1600 1100" xmlns="http://www.w3.org/2000/svg">
  <defs>
    <linearGradient id="bg" x1="0" y1="1" x2="1" y2="0"><stop stop-color="#15101d"/><stop offset=".52" stop-color="#171a2a"/><stop offset="1" stop-color="#0a1119"/></linearGradient>
    <radialGradient id="a"><stop stop-color="#bd88de" stop-opacity=".62"/><stop offset="1" stop-color="#bd88de" stop-opacity="0"/></radialGradient>
    <radialGradient id="b"><stop stop-color="#5da9bd" stop-opacity=".5"/><stop offset="1" stop-color="#5da9bd" stop-opacity="0"/></radialGradient>
    <filter id="blur"><feGaussianBlur stdDeviation="45"/></filter>
  </defs>
  <rect width="1600" height="1100" fill="url(#bg)"/>
  <circle cx="440" cy="380" r="360" fill="url(#a)" filter="url(#blur)"/><circle cx="1160" cy="690" r="420" fill="url(#b)" filter="url(#blur)"/>
  <g fill="none" stroke="#f5eaff" stroke-opacity=".16"><circle cx="800" cy="550" r="330" stroke-width="2"/><circle cx="800" cy="550" r="250"/><circle cx="800" cy="550" r="160"/></g>
  <g transform="translate(800 550)" fill="#d7c4ef" opacity=".88"><path d="M-170-10c-55-96 42-185 129-127 42-116 196-73 174 42 115-8 136 143 28 177-19 98-148 111-201 38-83 51-180-35-130-130Z"/><path d="M-78-120q-65 75 7 126-70 57 3 109M38-136q-65 73 4 128-62 60 7 127M-153-35q67-24 98 34M51-7q56-41 111 8" fill="none" stroke="#1c1727" stroke-width="18" stroke-linecap="round"/></g>
  <g fill="#fff" opacity=".6"><circle cx="301" cy="710" r="5"/><circle cx="1230" cy="287" r="7"/><circle cx="1325" cy="780" r="4"/><circle cx="410" cy="240" r="3"/></g>
  <text x="90" y="105" fill="#f1e8ff" font-family="Arial, sans-serif" font-size="25" letter-spacing="8">BRAINROT MAYHEM</text>
  <text x="90" y="1015" fill="#8c8199" font-family="Arial, sans-serif" font-size="17" letter-spacing="5">PROJECT IMAGE PLACEHOLDER • REPLACE WITH SCREENSHOT</text>
</svg>
