<svg xmlns="http://www.w3.org/2000/svg" viewBox="0 0 64 64">
  <defs>
    <linearGradient id="bg" x1="8" y1="4" x2="56" y2="60" gradientUnits="userSpaceOnUse">
      <stop stop-color="#20273a"/>
      <stop offset="1" stop-color="#0a0d14"/>
    </linearGradient>
    <linearGradient id="mark" x1="20" y1="16" x2="44" y2="49" gradientUnits="userSpaceOnUse">
      <stop stop-color="#ffffff"/>
      <stop offset="1" stop-color="#aebcff"/>
    </linearGradient>
  </defs>
  <rect x="3" y="3" width="58" height="58" rx="17" fill="url(#bg)" stroke="#aebcff" stroke-opacity=".35"/>
  <path d="M42.5 20.5c-2.7-2.2-6.1-3.3-10.1-3.3-6.2 0-10.5 3.2-10.5 8.1 0 4.4 3.1 6.6 9.6 8l3.2.7c3.2.7 4.5 1.7 4.5 3.6 0 2.5-2.4 4.1-6.3 4.1-4.1 0-7.5-1.4-10.5-4.2v6.3c2.8 2 6.4 3 10.7 3 7.5 0 12.1-3.7 12.1-9.7 0-4.7-3.1-7.2-9.7-8.6l-3-.6c-3.2-.7-4.4-1.4-4.4-3 0-1.9 1.8-3 4.7-3 3.6 0 6.8 1.3 9.7 3.7v-5.1Z" fill="url(#mark)"/>
</svg>
