<svg xmlns="http://www.w3.org/2000/svg" width="1200" height="630" viewBox="0 0 1200 630">
  <defs>
    <linearGradient id="bg" x1="0" y1="0" x2="1" y2="1"><stop stop-color="#080a0f"/><stop offset="1" stop-color="#111725"/></linearGradient>
    <radialGradient id="glow"><stop stop-color="#8197ff" stop-opacity=".32"/><stop offset="1" stop-color="#8197ff" stop-opacity="0"/></radialGradient>
    <filter id="blur"><feGaussianBlur stdDeviation="28"/></filter>
  </defs>
  <rect width="1200" height="630" fill="url(#bg)"/>
  <circle cx="925" cy="180" r="370" fill="url(#glow)" filter="url(#blur)"/>
  <g opacity=".08" stroke="#dce1ff"><path d="M0 105h1200M0 210h1200M0 315h1200M0 420h1200M0 525h1200M100 0v630M200 0v630M300 0v630M400 0v630M500 0v630M600 0v630M700 0v630M800 0v630M900 0v630M1000 0v630M1100 0v630"/></g>
  <rect x="70" y="67" width="54" height="54" rx="15" fill="#181e2c" stroke="#aebcff" stroke-opacity=".4"/>
  <text x="97" y="105" fill="#f5f7ff" font-family="Arial, sans-serif" font-size="31" font-weight="700" text-anchor="middle">S</text>
  <text x="143" y="103" fill="#f5f7ff" font-family="Arial, sans-serif" font-size="25" font-weight="700">Siffy</text>
  <text x="70" y="288" fill="#f5f7ff" font-family="Arial, sans-serif" font-size="70" font-weight="700">Roblox experiences</text>
  <text x="70" y="368" fill="#aebcff" font-family="Arial, sans-serif" font-size="70" font-weight="700">built to feel exceptional.</text>
  <text x="73" y="442" fill="#969eaa" font-family="Arial, sans-serif" font-size="21">Game systems · Lua · UI scripting · Optimization</text>
  <g transform="translate(915 330)">
    <path d="m0-118 102 59v118L0 118-102 59V-59Z" fill="#111725" stroke="#aebcff" stroke-opacity=".42" stroke-width="2"/>
    <path d="m-42 39 84-84M-48-42l96 96" stroke="#dce1ff" stroke-width="10" stroke-linecap="round" opacity=".78"/>
  </g>
  <text x="73" y="561" fill="#737c89" font-family="Arial, sans-serif" font-size="14" letter-spacing="4">ROBUX-FREE. DETAIL-RICH. PLAYER-READY.</text>
</svg>
